<svg xmlns="http://www.w3.org/2000/svg" xmlns:xlink="http://www.w3.org/1999/xlink" width="343.001" height="637.949" viewBox="0 0 343.001 637.949">
  <defs>
    <filter id="Rectangle_147164" x="0" y="499" width="341.99" height="138.95" filterUnits="userSpaceOnUse">
      <feOffset dx="-5" dy="10" input="SourceAlpha"/>
      <feGaussianBlur stdDeviation="3" result="blur"/>
      <feFlood flood-opacity="0.161"/>
      <feComposite operator="in" in2="blur"/>
      <feComposite in="SourceGraphic"/>
    </filter>
    <filter id="Union_34" x="0" y="374" width="343.001" height="173.999" filterUnits="userSpaceOnUse">
      <feOffset dx="-5" dy="10" input="SourceAlpha"/>
      <feGaussianBlur stdDeviation="3" result="blur-2"/>
      <feFlood flood-opacity="0.161"/>
      <feComposite operator="in" in2="blur-2"/>
      <feComposite in="SourceGraphic"/>
    </filter>
    <filter id="Union_35" x="0" y="251" width="343.001" height="173.999" filterUnits="userSpaceOnUse">
      <feOffset dx="-5" dy="10" input="SourceAlpha"/>
      <feGaussianBlur stdDeviation="3" result="blur-3"/>
      <feFlood flood-opacity="0.161"/>
      <feComposite operator="in" in2="blur-3"/>
      <feComposite in="SourceGraphic"/>
    </filter>
    <filter id="Union_36" x="0" y="125" width="343.001" height="173.999" filterUnits="userSpaceOnUse">
      <feOffset dx="-5" dy="10" input="SourceAlpha"/>
      <feGaussianBlur stdDeviation="3" result="blur-4"/>
      <feFlood flood-opacity="0.161"/>
      <feComposite operator="in" in2="blur-4"/>
      <feComposite in="SourceGraphic"/>
    </filter>
    <filter id="Union_37" x="0" y="0" width="343.001" height="174" filterUnits="userSpaceOnUse">
      <feOffset dx="-5" dy="10" input="SourceAlpha"/>
      <feGaussianBlur stdDeviation="3" result="blur-5"/>
      <feFlood flood-opacity="0.161"/>
      <feComposite operator="in" in2="blur-5"/>
      <feComposite in="SourceGraphic"/>
    </filter>
  </defs>
  <g id="Component_7_1" data-name="Component 7 – 1" transform="translate(14)">
    <g transform="matrix(1, 0, 0, 1, -14, 0)" filter="url(#Rectangle_147164)">
      <g id="Rectangle_147164-2" data-name="Rectangle 147164" transform="translate(14 499)" fill="#e7e124" stroke="#707070" stroke-width="1">
        <rect width="323.99" height="119.95" rx="20" stroke="none"/>
        <rect x="0.5" y="0.5" width="322.99" height="118.95" rx="19.5" fill="none"/>
      </g>
    </g>
    <g transform="matrix(1, 0, 0, 1, -14, 0)" filter="url(#Union_34)">
      <g id="Union_34-2" data-name="Union 34" transform="translate(5004 804)" fill="#e7e124">
        <path d="M -4826.9951171875 -275.6255798339844 L -4873.4248046875 -310.4506530761719 L -4873.55810546875 -310.5506591796875 L -4873.724609375 -310.5506591796875 L -4969.99951171875 -310.5506591796875 C -4972.63232421875 -310.5506591796875 -4975.1865234375 -311.0661315917969 -4977.59033203125 -312.0828247070313 C -4979.91259765625 -313.0648803710938 -4981.998046875 -314.4709777832031 -4983.7890625 -316.2619323730469 C -4985.580078125 -318.0528869628906 -4986.986328125 -320.1383056640625 -4987.96826171875 -322.4602661132813 C -4988.98486328125 -324.8639221191406 -4989.50048828125 -327.4176025390625 -4989.50048828125 -330.0502624511719 L -4989.50048828125 -409.9999389648438 C -4989.50048828125 -412.6325988769531 -4988.98486328125 -415.186279296875 -4987.96826171875 -417.5899353027344 C -4986.986328125 -419.9118957519531 -4985.580078125 -421.997314453125 -4983.7890625 -423.7882690429688 C -4981.998046875 -425.5792236328125 -4979.91259765625 -426.9853210449219 -4977.59033203125 -427.9674072265625 C -4975.1865234375 -428.9840698242188 -4972.63232421875 -429.4995727539063 -4969.99951171875 -429.4995727539063 L -4686.009765625 -429.4995727539063 C -4683.376953125 -429.4995727539063 -4680.82373046875 -428.9840698242188 -4678.419921875 -427.9674072265625 C -4676.09765625 -426.9853210449219 -4674.0126953125 -425.5792236328125 -4672.2216796875 -423.7882690429688 C -4670.4306640625 -421.9972839355469 -4669.0244140625 -419.911865234375 -4668.04248046875 -417.5899353027344 C -4667.02587890625 -415.1862182617188 -4666.51025390625 -412.6325988769531 -4666.51025390625 -409.9999389648438 L -4666.51025390625 -396.5073852539063 L -4666.51025390625 -396.0073852539063 L -4666.49951171875 -396.0073852539063 L -4666.51025390625 -395.9993591308594 L -4666.51025390625 -395.7493591308594 L -4666.51025390625 -330.0502624511719 C -4666.51025390625 -327.4176025390625 -4667.02587890625 -324.8639831542969 -4668.04248046875 -322.4602661132813 C -4669.0244140625 -320.1383056640625 -4670.4306640625 -318.0528869628906 -4672.2216796875 -316.2619323730469 C -4674.0126953125 -314.4709777832031 -4676.09765625 -313.0648803710938 -4678.419921875 -312.0828247070313 C -4680.82373046875 -311.0661315917969 -4683.376953125 -310.5506591796875 -4686.009765625 -310.5506591796875 L -4780.265625 -310.5506591796875 L -4780.43212890625 -310.5506591796875 L -4780.5654296875 -310.4506530761719 L -4826.9951171875 -275.6255798339844 Z" stroke="none"/>
        <path d="M -4826.9951171875 -276.2505798339844 L -4780.86572265625 -310.8506164550781 L -4780.59912109375 -311.0506591796875 L -4780.265625 -311.0506591796875 L -4686.009765625 -311.0506591796875 C -4683.4443359375 -311.0506591796875 -4680.9560546875 -311.5528564453125 -4678.61474609375 -312.5433044433594 C -4676.35205078125 -313.5001831054688 -4674.3203125 -314.8702697753906 -4672.5751953125 -316.615478515625 C -4670.830078125 -318.3606872558594 -4669.4599609375 -320.3927001953125 -4668.5029296875 -322.655029296875 C -4667.5126953125 -324.9967651367188 -4667.01025390625 -327.4848937988281 -4667.01025390625 -330.0502624511719 L -4667.01025390625 -395.5073852539063 L -4667.01025390625 -396.5073852539063 L -4667.01025390625 -409.9999389648438 C -4667.01025390625 -412.5653076171875 -4667.5126953125 -415.0534362792969 -4668.5029296875 -417.3951416015625 C -4669.4599609375 -419.657470703125 -4670.830078125 -421.6894836425781 -4672.5751953125 -423.4346923828125 C -4674.3203125 -425.179931640625 -4676.35205078125 -426.5500183105469 -4678.61474609375 -427.5068969726563 C -4680.9560546875 -428.4973449707031 -4683.4443359375 -428.9995727539063 -4686.009765625 -428.9995727539063 L -4969.99951171875 -428.9995727539063 C -4972.5654296875 -428.9995727539063 -4975.0537109375 -428.4973449707031 -4977.3955078125 -427.5068969726563 C -4979.658203125 -426.5499877929688 -4981.68994140625 -425.1799011230469 -4983.435546875 -423.4346923828125 C -4985.1806640625 -421.6894836425781 -4986.55078125 -419.657470703125 -4987.5078125 -417.3951416015625 C -4988.49853515625 -415.0534362792969 -4989.00048828125 -412.5653076171875 -4989.00048828125 -409.9999389648438 L -4989.00048828125 -330.0502624511719 C -4989.00048828125 -327.48486328125 -4988.49853515625 -324.9967651367188 -4987.5078125 -322.6550598144531 C -4986.55078125 -320.3927001953125 -4985.1806640625 -318.3606872558594 -4983.435546875 -316.6155090332031 C -4981.68994140625 -314.8702697753906 -4979.658203125 -313.5001831054688 -4977.3955078125 -312.5433044433594 C -4975.0537109375 -311.5528564453125 -4972.5654296875 -311.0506591796875 -4969.99951171875 -311.0506591796875 L -4873.724609375 -311.0506591796875 L -4873.39111328125 -311.0506591796875 L -4873.12451171875 -310.8506164550781 L -4826.9951171875 -276.2505798339844 M -4826.9951171875 -275.0005493164063 L -4873.724609375 -310.0506591796875 L -4969.99951171875 -310.0506591796875 C -4981.04638671875 -310.0506591796875 -4990.00048828125 -319.0047302246094 -4990.00048828125 -330.0502624511719 L -4990.00048828125 -409.9999389648438 C -4990.00048828125 -421.0454406738281 -4981.04638671875 -429.9995727539063 -4969.99951171875 -429.9995727539063 L -4686.009765625 -429.9995727539063 C -4674.96435546875 -429.9995727539063 -4666.01025390625 -421.0454406738281 -4666.01025390625 -409.9999389648438 L -4666.01025390625 -396.5073852539063 L -4664.99951171875 -396.5073852539063 L -4666.01025390625 -395.7493591308594 L -4666.01025390625 -330.0502624511719 C -4666.01025390625 -319.0047302246094 -4674.96435546875 -310.0506591796875 -4686.009765625 -310.0506591796875 L -4780.265625 -310.0506591796875 L -4826.9951171875 -275.0005493164063 Z" stroke="none" fill="#707070"/>
      </g>
    </g>
    <g transform="matrix(1, 0, 0, 1, -14, 0)" filter="url(#Union_35)">
      <g id="Union_35-2" data-name="Union 35" transform="translate(5004 681)" fill="#e7e124">
        <path d="M -4826.9951171875 -275.6255798339844 L -4873.4248046875 -310.4506530761719 L -4873.55810546875 -310.5506591796875 L -4873.724609375 -310.5506591796875 L -4969.99951171875 -310.5506591796875 C -4972.63232421875 -310.5506591796875 -4975.1865234375 -311.0661315917969 -4977.59033203125 -312.0828247070313 C -4979.91259765625 -313.0648803710938 -4981.998046875 -314.4709777832031 -4983.7890625 -316.2619323730469 C -4985.580078125 -318.0528869628906 -4986.986328125 -320.1383056640625 -4987.96826171875 -322.4602661132813 C -4988.98486328125 -324.8639221191406 -4989.50048828125 -327.4176025390625 -4989.50048828125 -330.0502624511719 L -4989.50048828125 -409.9999389648438 C -4989.50048828125 -412.6325988769531 -4988.98486328125 -415.186279296875 -4987.96826171875 -417.5899353027344 C -4986.986328125 -419.9118957519531 -4985.580078125 -421.997314453125 -4983.7890625 -423.7882690429688 C -4981.998046875 -425.5792236328125 -4979.91259765625 -426.9853210449219 -4977.59033203125 -427.9674072265625 C -4975.1865234375 -428.9840698242188 -4972.63232421875 -429.4995727539063 -4969.99951171875 -429.4995727539063 L -4686.009765625 -429.4995727539063 C -4683.376953125 -429.4995727539063 -4680.82373046875 -428.9840698242188 -4678.419921875 -427.9674072265625 C -4676.09765625 -426.9853210449219 -4674.0126953125 -425.5792236328125 -4672.2216796875 -423.7882690429688 C -4670.4306640625 -421.9972839355469 -4669.0244140625 -419.911865234375 -4668.04248046875 -417.5899353027344 C -4667.02587890625 -415.1862182617188 -4666.51025390625 -412.6325988769531 -4666.51025390625 -409.9999389648438 L -4666.51025390625 -396.5073852539063 L -4666.51025390625 -396.0073852539063 L -4666.49951171875 -396.0073852539063 L -4666.51025390625 -395.9993591308594 L -4666.51025390625 -395.7493591308594 L -4666.51025390625 -330.0502624511719 C -4666.51025390625 -327.4176025390625 -4667.02587890625 -324.8639831542969 -4668.04248046875 -322.4602661132813 C -4669.0244140625 -320.1383056640625 -4670.4306640625 -318.0528869628906 -4672.2216796875 -316.2619323730469 C -4674.0126953125 -314.4709777832031 -4676.09765625 -313.0648803710938 -4678.419921875 -312.0828247070313 C -4680.82373046875 -311.0661315917969 -4683.376953125 -310.5506591796875 -4686.009765625 -310.5506591796875 L -4780.265625 -310.5506591796875 L -4780.43212890625 -310.5506591796875 L -4780.5654296875 -310.4506530761719 L -4826.9951171875 -275.6255798339844 Z" stroke="none"/>
        <path d="M -4826.9951171875 -276.2505798339844 L -4780.86572265625 -310.8506164550781 L -4780.59912109375 -311.0506591796875 L -4780.265625 -311.0506591796875 L -4686.009765625 -311.0506591796875 C -4683.4443359375 -311.0506591796875 -4680.9560546875 -311.5528564453125 -4678.61474609375 -312.5433044433594 C -4676.35205078125 -313.5001831054688 -4674.3203125 -314.8702697753906 -4672.5751953125 -316.615478515625 C -4670.830078125 -318.3606872558594 -4669.4599609375 -320.3927001953125 -4668.5029296875 -322.655029296875 C -4667.5126953125 -324.9967651367188 -4667.01025390625 -327.4848937988281 -4667.01025390625 -330.0502624511719 L -4667.01025390625 -395.5073852539063 L -4667.01025390625 -396.5073852539063 L -4667.01025390625 -409.9999389648438 C -4667.01025390625 -412.5653076171875 -4667.5126953125 -415.0534362792969 -4668.5029296875 -417.3951416015625 C -4669.4599609375 -419.657470703125 -4670.830078125 -421.6894836425781 -4672.5751953125 -423.4346923828125 C -4674.3203125 -425.179931640625 -4676.35205078125 -426.5500183105469 -4678.61474609375 -427.5068969726563 C -4680.9560546875 -428.4973449707031 -4683.4443359375 -428.9995727539063 -4686.009765625 -428.9995727539063 L -4969.99951171875 -428.9995727539063 C -4972.5654296875 -428.9995727539063 -4975.0537109375 -428.4973449707031 -4977.3955078125 -427.5068969726563 C -4979.658203125 -426.5499877929688 -4981.68994140625 -425.1799011230469 -4983.435546875 -423.4346923828125 C -4985.1806640625 -421.6894836425781 -4986.55078125 -419.657470703125 -4987.5078125 -417.3951416015625 C -4988.49853515625 -415.0534362792969 -4989.00048828125 -412.5653076171875 -4989.00048828125 -409.9999389648438 L -4989.00048828125 -330.0502624511719 C -4989.00048828125 -327.48486328125 -4988.49853515625 -324.9967651367188 -4987.5078125 -322.6550598144531 C -4986.55078125 -320.3927001953125 -4985.1806640625 -318.3606872558594 -4983.435546875 -316.6155090332031 C -4981.68994140625 -314.8702697753906 -4979.658203125 -313.5001831054688 -4977.3955078125 -312.5433044433594 C -4975.0537109375 -311.5528564453125 -4972.5654296875 -311.0506591796875 -4969.99951171875 -311.0506591796875 L -4873.724609375 -311.0506591796875 L -4873.39111328125 -311.0506591796875 L -4873.12451171875 -310.8506164550781 L -4826.9951171875 -276.2505798339844 M -4826.9951171875 -275.0005493164063 L -4873.724609375 -310.0506591796875 L -4969.99951171875 -310.0506591796875 C -4981.04638671875 -310.0506591796875 -4990.00048828125 -319.0047302246094 -4990.00048828125 -330.0502624511719 L -4990.00048828125 -409.9999389648438 C -4990.00048828125 -421.0454406738281 -4981.04638671875 -429.9995727539063 -4969.99951171875 -429.9995727539063 L -4686.009765625 -429.9995727539063 C -4674.96435546875 -429.9995727539063 -4666.01025390625 -421.0454406738281 -4666.01025390625 -409.9999389648438 L -4666.01025390625 -396.5073852539063 L -4664.99951171875 -396.5073852539063 L -4666.01025390625 -395.7493591308594 L -4666.01025390625 -330.0502624511719 C -4666.01025390625 -319.0047302246094 -4674.96435546875 -310.0506591796875 -4686.009765625 -310.0506591796875 L -4780.265625 -310.0506591796875 L -4826.9951171875 -275.0005493164063 Z" stroke="none" fill="#707070"/>
      </g>
    </g>
    <g transform="matrix(1, 0, 0, 1, -14, 0)" filter="url(#Union_36)">
      <g id="Union_36-2" data-name="Union 36" transform="translate(5004 555)" fill="#e7e124">
        <path d="M -4826.9951171875 -275.6255798339844 L -4873.4248046875 -310.4506530761719 L -4873.55810546875 -310.5506591796875 L -4873.724609375 -310.5506591796875 L -4969.99951171875 -310.5506591796875 C -4972.63232421875 -310.5506591796875 -4975.1865234375 -311.0661315917969 -4977.59033203125 -312.0828247070313 C -4979.91259765625 -313.0648803710938 -4981.998046875 -314.4709777832031 -4983.7890625 -316.2619323730469 C -4985.580078125 -318.0528869628906 -4986.986328125 -320.1383056640625 -4987.96826171875 -322.4602661132813 C -4988.98486328125 -324.8639221191406 -4989.50048828125 -327.4176025390625 -4989.50048828125 -330.0502624511719 L -4989.50048828125 -409.9999389648438 C -4989.50048828125 -412.6325988769531 -4988.98486328125 -415.186279296875 -4987.96826171875 -417.5899353027344 C -4986.986328125 -419.9118957519531 -4985.580078125 -421.997314453125 -4983.7890625 -423.7882690429688 C -4981.998046875 -425.5792236328125 -4979.91259765625 -426.9853210449219 -4977.59033203125 -427.9674072265625 C -4975.1865234375 -428.9840698242188 -4972.63232421875 -429.4995727539063 -4969.99951171875 -429.4995727539063 L -4686.009765625 -429.4995727539063 C -4683.376953125 -429.4995727539063 -4680.82373046875 -428.9840698242188 -4678.419921875 -427.9674072265625 C -4676.09765625 -426.9853210449219 -4674.0126953125 -425.5792236328125 -4672.2216796875 -423.7882690429688 C -4670.4306640625 -421.9972839355469 -4669.0244140625 -419.911865234375 -4668.04248046875 -417.5899353027344 C -4667.02587890625 -415.1862182617188 -4666.51025390625 -412.6325988769531 -4666.51025390625 -409.9999389648438 L -4666.51025390625 -396.5073852539063 L -4666.51025390625 -396.0073852539063 L -4666.49951171875 -396.0073852539063 L -4666.51025390625 -395.9993591308594 L -4666.51025390625 -395.7493591308594 L -4666.51025390625 -330.0502624511719 C -4666.51025390625 -327.4176025390625 -4667.02587890625 -324.8639831542969 -4668.04248046875 -322.4602661132813 C -4669.0244140625 -320.1383056640625 -4670.4306640625 -318.0528869628906 -4672.2216796875 -316.2619323730469 C -4674.0126953125 -314.4709777832031 -4676.09765625 -313.0648803710938 -4678.419921875 -312.0828247070313 C -4680.82373046875 -311.0661315917969 -4683.376953125 -310.5506591796875 -4686.009765625 -310.5506591796875 L -4780.265625 -310.5506591796875 L -4780.43212890625 -310.5506591796875 L -4780.5654296875 -310.4506530761719 L -4826.9951171875 -275.6255798339844 Z" stroke="none"/>
        <path d="M -4826.9951171875 -276.2505798339844 L -4780.86572265625 -310.8506164550781 L -4780.59912109375 -311.0506591796875 L -4780.265625 -311.0506591796875 L -4686.009765625 -311.0506591796875 C -4683.4443359375 -311.0506591796875 -4680.9560546875 -311.5528564453125 -4678.61474609375 -312.5433044433594 C -4676.35205078125 -313.5001831054688 -4674.3203125 -314.8702697753906 -4672.5751953125 -316.615478515625 C -4670.830078125 -318.3606872558594 -4669.4599609375 -320.3927001953125 -4668.5029296875 -322.655029296875 C -4667.5126953125 -324.9967651367188 -4667.01025390625 -327.4848937988281 -4667.01025390625 -330.0502624511719 L -4667.01025390625 -395.5073852539063 L -4667.01025390625 -396.5073852539063 L -4667.01025390625 -409.9999389648438 C -4667.01025390625 -412.5653076171875 -4667.5126953125 -415.0534362792969 -4668.5029296875 -417.3951416015625 C -4669.4599609375 -419.657470703125 -4670.830078125 -421.6894836425781 -4672.5751953125 -423.4346923828125 C -4674.3203125 -425.179931640625 -4676.35205078125 -426.5500183105469 -4678.61474609375 -427.5068969726563 C -4680.9560546875 -428.4973449707031 -4683.4443359375 -428.9995727539063 -4686.009765625 -428.9995727539063 L -4969.99951171875 -428.9995727539063 C -4972.5654296875 -428.9995727539063 -4975.0537109375 -428.4973449707031 -4977.3955078125 -427.5068969726563 C -4979.658203125 -426.5499877929688 -4981.68994140625 -425.1799011230469 -4983.435546875 -423.4346923828125 C -4985.1806640625 -421.6894836425781 -4986.55078125 -419.657470703125 -4987.5078125 -417.3951416015625 C -4988.49853515625 -415.0534362792969 -4989.00048828125 -412.5653076171875 -4989.00048828125 -409.9999389648438 L -4989.00048828125 -330.0502624511719 C -4989.00048828125 -327.48486328125 -4988.49853515625 -324.9967651367188 -4987.5078125 -322.6550598144531 C -4986.55078125 -320.3927001953125 -4985.1806640625 -318.3606872558594 -4983.435546875 -316.6155090332031 C -4981.68994140625 -314.8702697753906 -4979.658203125 -313.5001831054688 -4977.3955078125 -312.5433044433594 C -4975.0537109375 -311.5528564453125 -4972.5654296875 -311.0506591796875 -4969.99951171875 -311.0506591796875 L -4873.724609375 -311.0506591796875 L -4873.39111328125 -311.0506591796875 L -4873.12451171875 -310.8506164550781 L -4826.9951171875 -276.2505798339844 M -4826.9951171875 -275.0005493164063 L -4873.724609375 -310.0506591796875 L -4969.99951171875 -310.0506591796875 C -4981.04638671875 -310.0506591796875 -4990.00048828125 -319.0047302246094 -4990.00048828125 -330.0502624511719 L -4990.00048828125 -409.9999389648438 C -4990.00048828125 -421.0454406738281 -4981.04638671875 -429.9995727539063 -4969.99951171875 -429.9995727539063 L -4686.009765625 -429.9995727539063 C -4674.96435546875 -429.9995727539063 -4666.01025390625 -421.0454406738281 -4666.01025390625 -409.9999389648438 L -4666.01025390625 -396.5073852539063 L -4664.99951171875 -396.5073852539063 L -4666.01025390625 -395.7493591308594 L -4666.01025390625 -330.0502624511719 C -4666.01025390625 -319.0047302246094 -4674.96435546875 -310.0506591796875 -4686.009765625 -310.0506591796875 L -4780.265625 -310.0506591796875 L -4826.9951171875 -275.0005493164063 Z" stroke="none" fill="#707070"/>
      </g>
    </g>
    <g transform="matrix(1, 0, 0, 1, -14, 0)" filter="url(#Union_37)">
      <g id="Union_37-2" data-name="Union 37" transform="translate(5004 430)" fill="#e7e124">
        <path d="M -4826.9951171875 -275.6242980957031 L -4873.42578125 -310.4506225585938 L -4873.55908203125 -310.5506286621094 L -4873.7255859375 -310.5506286621094 L -4969.99951171875 -310.5506286621094 C -4972.63232421875 -310.5506286621094 -4975.1865234375 -311.0661315917969 -4977.59033203125 -312.0827941894531 C -4979.91259765625 -313.0648803710938 -4981.998046875 -314.470947265625 -4983.7890625 -316.2619018554688 C -4985.580078125 -318.0528564453125 -4986.986328125 -320.1382751464844 -4987.96826171875 -322.4602355957031 C -4988.98486328125 -324.8639221191406 -4989.50048828125 -327.4175720214844 -4989.50048828125 -330.0502319335938 L -4989.50048828125 -409.9999389648438 C -4989.50048828125 -412.6326293945313 -4988.98486328125 -415.186279296875 -4987.96826171875 -417.5899658203125 C -4986.986328125 -419.9118957519531 -4985.580078125 -421.997314453125 -4983.7890625 -423.7882690429688 C -4981.998046875 -425.5792541503906 -4979.91259765625 -426.9853210449219 -4977.59033203125 -427.9674072265625 C -4975.1865234375 -428.9840698242188 -4972.63232421875 -429.4995727539063 -4969.99951171875 -429.4995727539063 L -4686.009765625 -429.4995727539063 C -4683.376953125 -429.4995727539063 -4680.82373046875 -428.9840698242188 -4678.419921875 -427.9674072265625 C -4676.09765625 -426.9853210449219 -4674.0126953125 -425.5792541503906 -4672.2216796875 -423.7882690429688 C -4670.4306640625 -421.9972839355469 -4669.0244140625 -419.911865234375 -4668.04248046875 -417.5899658203125 C -4667.02587890625 -415.1862487792969 -4666.51025390625 -412.6326293945313 -4666.51025390625 -409.9999389648438 L -4666.51025390625 -396.5073547363281 L -4666.51025390625 -396.0073547363281 L -4666.49951171875 -396.0073547363281 L -4666.51025390625 -395.9993286132813 L -4666.51025390625 -395.7493286132813 L -4666.51025390625 -330.0502319335938 C -4666.51025390625 -327.4175720214844 -4667.02587890625 -324.8639526367188 -4668.04248046875 -322.4602355957031 C -4669.0244140625 -320.1383361816406 -4670.4306640625 -318.0529174804688 -4672.2216796875 -316.2619018554688 C -4674.0126953125 -314.470947265625 -4676.09765625 -313.0648803710938 -4678.419921875 -312.0827941894531 C -4680.82373046875 -311.0661315917969 -4683.376953125 -310.5506286621094 -4686.009765625 -310.5506286621094 L -4780.2646484375 -310.5506286621094 L -4780.43115234375 -310.5506286621094 L -4780.564453125 -310.4506225585938 L -4826.9951171875 -275.6242980957031 Z" stroke="none"/>
        <path d="M -4826.9951171875 -276.2493286132813 L -4780.86474609375 -310.8505859375 L -4780.59814453125 -311.0506286621094 L -4780.2646484375 -311.0506286621094 L -4686.009765625 -311.0506286621094 C -4683.4443359375 -311.0506286621094 -4680.9560546875 -311.5528259277344 -4678.61474609375 -312.5432739257813 C -4676.35205078125 -313.5001525878906 -4674.3203125 -314.8702392578125 -4672.5751953125 -316.615478515625 C -4670.830078125 -318.3606872558594 -4669.4599609375 -320.3927001953125 -4668.5029296875 -322.655029296875 C -4667.5126953125 -324.9967346191406 -4667.01025390625 -327.48486328125 -4667.01025390625 -330.0502319335938 L -4667.01025390625 -395.5073547363281 L -4667.01025390625 -396.5073547363281 L -4667.01025390625 -409.9999389648438 C -4667.01025390625 -412.5653381347656 -4667.5126953125 -415.0534362792969 -4668.5029296875 -417.3951721191406 C -4669.4599609375 -419.6575012207031 -4670.830078125 -421.6894836425781 -4672.5751953125 -423.4346923828125 C -4674.3203125 -425.1799621582031 -4676.35205078125 -426.550048828125 -4678.61474609375 -427.5068969726563 C -4680.9560546875 -428.4973754882813 -4683.4443359375 -428.9995727539063 -4686.009765625 -428.9995727539063 L -4969.99951171875 -428.9995727539063 C -4972.5654296875 -428.9995727539063 -4975.0537109375 -428.4973754882813 -4977.3955078125 -427.5068969726563 C -4979.658203125 -426.5499877929688 -4981.68994140625 -425.1799011230469 -4983.435546875 -423.4346923828125 C -4985.1806640625 -421.6894836425781 -4986.55078125 -419.6575012207031 -4987.5078125 -417.3951721191406 C -4988.49853515625 -415.0534362792969 -4989.00048828125 -412.5653381347656 -4989.00048828125 -409.9999389648438 L -4989.00048828125 -330.0502319335938 C -4989.00048828125 -327.48486328125 -4988.49853515625 -324.9967346191406 -4987.5078125 -322.655029296875 C -4986.55078125 -320.3927001953125 -4985.1806640625 -318.3606872558594 -4983.435546875 -316.615478515625 C -4981.68994140625 -314.8702697753906 -4979.658203125 -313.5002136230469 -4977.3955078125 -312.5432739257813 C -4975.0537109375 -311.5528259277344 -4972.5654296875 -311.0506286621094 -4969.99951171875 -311.0506286621094 L -4873.7255859375 -311.0506286621094 L -4873.39208984375 -311.0506286621094 L -4873.12548828125 -310.8505859375 L -4826.9951171875 -276.2493286132813 M -4826.9951171875 -274.9992980957031 L -4873.7255859375 -310.0506286621094 L -4969.99951171875 -310.0506286621094 C -4981.04638671875 -310.0506286621094 -4990.00048828125 -319.0047302246094 -4990.00048828125 -330.0502319335938 L -4990.00048828125 -409.9999389648438 C -4990.00048828125 -421.0454406738281 -4981.04638671875 -429.9995727539063 -4969.99951171875 -429.9995727539063 L -4686.009765625 -429.9995727539063 C -4674.96435546875 -429.9995727539063 -4666.01025390625 -421.0454406738281 -4666.01025390625 -409.9999389648438 L -4666.01025390625 -396.5073547363281 L -4664.99951171875 -396.5073547363281 L -4666.01025390625 -395.7493286132813 L -4666.01025390625 -330.0502319335938 C -4666.01025390625 -319.0047302246094 -4674.96435546875 -310.0506286621094 -4686.009765625 -310.0506286621094 L -4780.2646484375 -310.0506286621094 L -4826.9951171875 -274.9992980957031 Z" stroke="none" fill="#707070"/>
      </g>
    </g>
    <text id="Full_Paper_submission_-_15th_August_2020_" data-name="Full Paper submission
   - 15th August, 2020
" transform="translate(45 49)" font-size="25" font-family="SegoeUI, Segoe UI"><tspan x="0" y="0">Full Paper submission</tspan><tspan x="0" y="35" xml:space="preserve">   </tspan><tspan y="35" font-family="SegoeUI-Bold, Segoe UI" font-weight="700">-</tspan><tspan y="35"> </tspan><tspan y="35" font-family="SegoeUI-Bold, Segoe UI" font-weight="700">30</tspan><tspan y="35" font-size="14.582" font-family="SegoeUI-Bold, Segoe UI" font-weight="700" baseline-shift="8.332499716634633">th</tspan><tspan y="35" xml:space="preserve" font-family="SegoeUI-Bold, Segoe UI" font-weight="700"> July, 2020</tspan><tspan font-family="SegoeUI-Bold, Segoe UI" font-weight="700"><tspan x="0" y="70"></tspan></tspan></text>
    <text id="Acceptance_notification_-_30th_August_2020_" data-name="Acceptance notification
  - 30th August, 2020
" transform="translate(35 182)" font-size="25" font-family="SegoeUI, Segoe UI"><tspan x="0" y="0">Acceptance notification</tspan><tspan x="0" y="35" xml:space="preserve">  </tspan><tspan y="35" font-family="SegoeUI-Bold, Segoe UI" font-weight="700">-</tspan><tspan y="35"> </tspan><tspan y="35" font-family="SegoeUI-Bold, Segoe UI" font-weight="700">15</tspan><tspan y="35" font-size="14.582" font-family="SegoeUI-Bold, Segoe UI" font-weight="700" baseline-shift="8.332499716634633">th</tspan><tspan y="35" xml:space="preserve" font-family="SegoeUI-Bold, Segoe UI" font-weight="700"> August, 2020</tspan><tspan font-family="SegoeUI-Bold, Segoe UI" font-weight="700"><tspan x="0" y="70"></tspan></tspan></text>
    <text id="_Early_bird_registration_-_15th_September_2020_" data-name="    Early bird registration
- 15th September, 2020
" transform="translate(25 307)" font-size="25" font-family="SegoeUI, Segoe UI"><tspan x="0" y="0" xml:space="preserve">    Early bird registration</tspan><tspan font-family="SegoeUI-Bold, Segoe UI" font-weight="700"><tspan x="0" y="35">- 15</tspan><tspan y="35" font-size="14.582" baseline-shift="8.332499716634633">th</tspan><tspan y="35" xml:space="preserve"> September, 2020</tspan><tspan x="0" y="70"></tspan></tspan></text>
    <text id="_Final_Paper_submission_-_15th_September_2020_" data-name="  Final Paper submission
- 15th September, 2020
" transform="translate(25 432)" font-size="25" font-family="SegoeUI, Segoe UI"><tspan x="0" y="0" xml:space="preserve">  Final Paper submission</tspan><tspan font-family="SegoeUI-Bold, Segoe UI" font-weight="700"><tspan x="0" y="35">-</tspan><tspan y="35" font-family="SegoeUI, Segoe UI" font-weight="400"> </tspan><tspan y="35">15</tspan><tspan y="35" font-size="14.582" baseline-shift="8.332499716634633">th</tspan><tspan y="35" xml:space="preserve"> September, 2020</tspan><tspan x="0" y="70"></tspan></tspan></text>
    <text id="Last_date_for_registration_-_1st_October_2020_" data-name="Last date for registration
   - 1st October, 2020
" transform="translate(30 556)" font-size="25" font-family="SegoeUI, Segoe UI"><tspan x="0" y="0">Last date for registration</tspan><tspan font-family="SegoeUI-Bold, Segoe UI" font-weight="700"><tspan x="0" y="35" xml:space="preserve">   - 1</tspan><tspan y="35" font-size="14.582" baseline-shift="8.332499716634633">st</tspan><tspan y="35" xml:space="preserve"> October, 2020</tspan><tspan x="0" y="70"></tspan></tspan></text>
  </g>
</svg>
